<svg width="39" height="42" viewBox="0 0 39 42" fill="none" xmlns="http://www.w3.org/2000/svg">
<path d="M1 1.5C1 0.671573 1.67157 0 2.5 0H37.5C38.3284 0 39 0.671573 39 1.5C39 2.32843 38.3284 3 37.5 3H2.5C1.67157 3 1 2.32843 1 1.5Z" fill="#0035A9"/>
<path d="M1 23.5C1 22.6716 1.67157 22 2.5 22H37.5C38.3284 22 39 22.6716 39 23.5C39 24.3284 38.3284 25 37.5 25H2.5C1.67157 25 1 24.3284 1 23.5Z" fill="#0035A9"/>
<path d="M13.667 12.5C13.667 11.6716 14.3386 11 15.167 11H37.5003C38.3288 11 39.0003 11.6716 39.0003 12.5C39.0003 13.3284 38.3288 14 37.5003 14H15.167C14.3386 14 13.667 13.3284 13.667 12.5Z" fill="#0035A9"/>
<path d="M0.96875 33H2.125L4.84375 39.6406H4.9375L7.65625 33H8.8125V41H7.90625V34.9219H7.82812L5.32812 41H4.45312L1.95313 34.9219H1.875V41H0.96875V33Z" fill="#0035A9"/>
<path d="M12.0749 41V33H16.903V33.8594H13.0436V36.5625H16.653V37.4219H13.0436V40.1406H16.9655V41H12.0749Z" fill="#0035A9"/>
<path d="M19.9691 41V33H20.9379V36.5625H25.2035V33H26.1722V41H25.2035V37.4219H20.9379V41H19.9691Z" fill="#0035A9"/>
<path d="M30.4004 33V41H29.4317V33H30.4004ZM32.1465 36.6406V37.5H29.6973V36.6406H32.1465ZM38.9317 37C38.9317 37.8438 38.7793 38.5729 38.4746 39.1875C38.17 39.8021 37.752 40.276 37.2207 40.6094C36.6895 40.9427 36.0827 41.1094 35.4004 41.1094C34.7181 41.1094 34.1114 40.9427 33.5801 40.6094C33.0489 40.276 32.6309 39.8021 32.3262 39.1875C32.0215 38.5729 31.8692 37.8438 31.8692 37C31.8692 36.1563 32.0215 35.4271 32.3262 34.8125C32.6309 34.1979 33.0489 33.724 33.5801 33.3906C34.1114 33.0573 34.7181 32.8906 35.4004 32.8906C36.0827 32.8906 36.6895 33.0573 37.2207 33.3906C37.752 33.724 38.17 34.1979 38.4746 34.8125C38.7793 35.4271 38.9317 36.1563 38.9317 37ZM37.9942 37C37.9942 36.3073 37.8783 35.7227 37.6465 35.2461C37.4174 34.7695 37.1062 34.4089 36.7129 34.1641C36.3223 33.9193 35.8848 33.7969 35.4004 33.7969C34.9161 33.7969 34.4773 33.9193 34.084 34.1641C33.6934 34.4089 33.3822 34.7695 33.1504 35.2461C32.9213 35.7227 32.8067 36.3073 32.8067 37C32.8067 37.6927 32.9213 38.2773 33.1504 38.7539C33.3822 39.2305 33.6934 39.5911 34.084 39.8359C34.4773 40.0807 34.9161 40.2031 35.4004 40.2031C35.8848 40.2031 36.3223 40.0807 36.7129 39.8359C37.1062 39.5911 37.4174 39.2305 37.6465 38.7539C37.8783 38.2773 37.9942 37.6927 37.9942 37Z" fill="#0035A9"/>
</svg>
