<svg width="39" height="44" viewBox="0 0 39 44" fill="none" xmlns="http://www.w3.org/2000/svg">
<path d="M7.06164 28.0607C6.47585 27.4749 6.47585 26.5251 7.06164 25.9394L31.8104 1.19062C32.3962 0.604835 33.3459 0.604834 33.9317 1.19062C34.5175 1.77641 34.5175 2.72616 33.9317 3.31194L9.18296 28.0607C8.59717 28.6465 7.64742 28.6465 7.06164 28.0607Z" fill="#FF5C00"/>
<path d="M6.93957 1.06068C7.52535 0.474891 8.4751 0.474891 9.06089 1.06068L33.8096 25.8094C34.3954 26.3952 34.3954 27.3449 33.8096 27.9307C33.2238 28.5165 32.2741 28.5165 31.6883 27.9307L6.93957 3.182C6.35378 2.59621 6.35378 1.64646 6.93957 1.06068Z" fill="#FF5C00"/>
<path d="M0.96875 35H2.125L4.84375 41.6406H4.9375L7.65625 35H8.8125V43H7.90625V36.9219H7.82812L5.32812 43H4.45312L1.95313 36.9219H1.875V43H0.96875V35Z" fill="#FF5C00"/>
<path d="M12.0749 43V35H16.903V35.8594H13.0436V38.5625H16.653V39.4219H13.0436V42.1406H16.9655V43H12.0749Z" fill="#FF5C00"/>
<path d="M19.9691 43V35H20.9379V38.5625H25.2035V35H26.1722V43H25.2035V39.4219H20.9379V43H19.9691Z" fill="#FF5C00"/>
<path d="M30.4004 35V43H29.4317V35H30.4004ZM32.1465 38.6406V39.5H29.6973V38.6406H32.1465ZM38.9317 39C38.9317 39.8438 38.7793 40.5729 38.4746 41.1875C38.17 41.8021 37.752 42.2761 37.2207 42.6094C36.6895 42.9427 36.0827 43.1094 35.4004 43.1094C34.7181 43.1094 34.1114 42.9427 33.5801 42.6094C33.0489 42.2761 32.6309 41.8021 32.3262 41.1875C32.0215 40.5729 31.8692 39.8438 31.8692 39C31.8692 38.1563 32.0215 37.4271 32.3262 36.8125C32.6309 36.1979 33.0489 35.724 33.5801 35.3906C34.1114 35.0573 34.7181 34.8906 35.4004 34.8906C36.0827 34.8906 36.6895 35.0573 37.2207 35.3906C37.752 35.724 38.17 36.1979 38.4746 36.8125C38.7793 37.4271 38.9317 38.1563 38.9317 39ZM37.9942 39C37.9942 38.3073 37.8783 37.7227 37.6465 37.2461C37.4174 36.7696 37.1062 36.4089 36.7129 36.1641C36.3223 35.9193 35.8848 35.7969 35.4004 35.7969C34.9161 35.7969 34.4773 35.9193 34.084 36.1641C33.6934 36.4089 33.3822 36.7696 33.1504 37.2461C32.9213 37.7227 32.8067 38.3073 32.8067 39C32.8067 39.6927 32.9213 40.2774 33.1504 40.7539C33.3822 41.2305 33.6934 41.5912 34.084 41.836C34.4773 42.0807 34.9161 42.2031 35.4004 42.2031C35.8848 42.2031 36.3223 42.0807 36.7129 41.836C37.1062 41.5912 37.4174 41.2305 37.6465 40.7539C37.8783 40.2774 37.9942 39.6927 37.9942 39Z" fill="#FF5C00"/>
</svg>
