<svg width="19" height="19" viewBox="0 0 19 19" fill="none" xmlns="http://www.w3.org/2000/svg">
<path d="M0 6.27679V1.01786C0 0.453795 0.453795 0 1.01786 0H6.27679C6.5567 0 6.78571 0.229018 6.78571 0.508929V2.20536C6.78571 2.48527 6.5567 2.71429 6.27679 2.71429H2.71429V6.27679C2.71429 6.5567 2.48527 6.78571 2.20536 6.78571H0.508929C0.229018 6.78571 0 6.5567 0 6.27679ZM12.2143 0.508929V2.20536C12.2143 2.48527 12.4433 2.71429 12.7232 2.71429H16.2857V6.27679C16.2857 6.5567 16.5147 6.78571 16.7946 6.78571H18.4911C18.771 6.78571 19 6.5567 19 6.27679V1.01786C19 0.453795 18.5462 0 17.9821 0H12.7232C12.4433 0 12.2143 0.229018 12.2143 0.508929ZM18.4911 12.2143H16.7946C16.5147 12.2143 16.2857 12.4433 16.2857 12.7232V16.2857H12.7232C12.4433 16.2857 12.2143 16.5147 12.2143 16.7946V18.4911C12.2143 18.771 12.4433 19 12.7232 19H17.9821C18.5462 19 19 18.5462 19 17.9821V12.7232C19 12.4433 18.771 12.2143 18.4911 12.2143ZM6.78571 18.4911V16.7946C6.78571 16.5147 6.5567 16.2857 6.27679 16.2857H2.71429V12.7232C2.71429 12.4433 2.48527 12.2143 2.20536 12.2143H0.508929C0.229018 12.2143 0 12.4433 0 12.7232V17.9821C0 18.5462 0.453795 19 1.01786 19H6.27679C6.5567 19 6.78571 18.771 6.78571 18.4911Z" fill="white"/>
</svg>
